<svg style="height: 512px; width: 512px;" xmlns="http://www.w3.org/2000/svg" viewBox="0 0 512 512"><defs><filter id="shadow-2" height="300%" width="300%" x="-100%" y="-100%"><feFlood flood-color="rgba(255, 255, 255, 1)" result="flood"></feFlood><feComposite in="flood" in2="SourceGraphic" operator="atop" result="composite"></feComposite><feGaussianBlur in="composite" stdDeviation="15" result="blur"></feGaussianBlur><feOffset dx="0" dy="0" result="offset"></feOffset><feComposite in="SourceGraphic" in2="offset" operator="over"></feComposite></filter></defs><g class="" style="" transform="translate(11,-5)"><path d="M229.832 24.166C169.087 23.868 108.817 50.45 68.12 101.72c-70.4 88.68-55.578 217.634 33.1 288.032 1.39 1.104 2.817 2.195 4.26 3.27.286.303.575.618.86.916-.118-.177-.23-.355-.348-.532 5.055 3.744 10.36 7.29 15.504 10.475-15.073-15.153-27.356-32.234-36.783-50.52-26.065-64.267-15.236-129.285 32.96-161.24 58.434-38.76 151.118-15.176 215.06 51.675-3.942-5.902-8.413-12.113-13.016-17.834-63.682-79.235-166.368-109.6-229.362-67.817-1.072.71-2.122 1.442-3.158 2.185 5.43-9.825 11.74-19.333 18.953-28.418 65.31-82.274 181.148-100.695 268.36-46.756-5.63-5.66-11.95-11.454-18.358-16.54-37.412-29.7-81.992-44.23-126.32-44.448zm160.617 82.277c45.104 42.614 67.29 102.166 63.886 161.223-5.603 29.51-20.302 57.597-44.16 80.174-58.436 55.31-151.12 57.978-215.063 9.238 3.944 4.784 8.413 9.73 13.016 14.145 49.375 47.45 122.196 58.87 181.786 33.818-65.28 61.195-164.122 72.983-242.467 27.83 5.804 5.48 12.3 11.075 18.863 15.96 90.822 67.61 219.257 48.797 286.867-42.03 67.61-90.822 48.795-219.255-42.028-286.866-6.56-4.887-13.782-9.5-20.703-13.49z" fill="#ffffff" fill-opacity="1" transform="translate(0, 0) scale(1, 1) rotate(270, 256, 256) skewX(0) skewY(0)"></path></g><g class="" style="" transform="translate(598,373)"><g transform="translate(6.4, 6.4) scale(0.8, 0.8) rotate(0, 128, 128)"><circle cx="128" cy="128" r="128" fill="#ffffff" fill-opacity="1"></circle><circle stroke="#ffffff" stroke-opacity="1" fill="#ffffff" fill-opacity="1" stroke-width="18" cx="128" cy="128" r="101"></circle><path fill="#ffffff" fill-opacity="1" d="M79.29 62.53l5.74 17.52 12.78 39.05-47.93 34.7 59.32.1 18.4 56.2 18.2-56.2 60.3.1-48.8-35.2 18.1-55.9-47.7 34.54zm22.91 31.3l15.2 11.07-9.4 6.8zm50.4.38L147 111.4l-9.1-6.6zm-24.9 17.99l15.4 11.2-6 18.5h-19.2l-6-18.2zm25.7 18.6l15.5 11.2-19.2-.1zm-51.7.2l3.6 10.9-18.47-.1zm20.2 22.9h11.3l-5.6 17.4z"></path></g></g></svg>